<?xml version="1.0" encoding="UTF-8"?>
<svg width="210px" height="98px" viewBox="0 0 210 98" version="1.1" xmlns="http://www.w3.org/2000/svg" xmlns:xlink="http://www.w3.org/1999/xlink">
    <!-- Generator: Sketch 53.2 (72643) - https://sketchapp.com -->
    <title>Group 2</title>
    <desc>Created with Sketch.</desc>
    <defs>
        <path d="M77,26 L182,26 C184.209139,26 186,27.790861 186,30 L186,65 C186,73.836556 178.836556,81 170,81 L77,81 C68.163444,81 61,73.836556 61,65 L61,42 C61,33.163444 68.163444,26 77,26 Z" id="path-1"></path>
        <filter x="-15.6%" y="-24.5%" width="131.2%" height="170.9%" filterUnits="objectBoundingBox" id="filter-2">
            <feOffset dx="0" dy="6" in="SourceAlpha" result="shadowOffsetOuter1"></feOffset>
            <feGaussianBlur stdDeviation="5.5" in="shadowOffsetOuter1" result="shadowBlurOuter1"></feGaussianBlur>
            <feColorMatrix values="0 0 0 0 0   0 0 0 0 0   0 0 0 0 0  0 0 0 0.0608336976 0" type="matrix" in="shadowBlurOuter1"></feColorMatrix>
        </filter>
    </defs>
    <g id="Interactive-learning" stroke="none" stroke-width="1" fill="none" fill-rule="evenodd">
        <g id="Artboard" transform="translate(-267.000000, -322.000000)">
            <g id="Group-2" transform="translate(267.000000, 322.000000)">
                <path d="M28,0 L133,0 C141.836556,-1.623249e-15 149,7.163444 149,16 L149,39 C149,47.836556 141.836556,55 133,55 L40,55 C31.163444,55 24,47.836556 24,39 L24,4 C24,1.790861 25.790861,4.05812251e-16 28,0 Z" id="Rectangle" fill="#ECEFF7"></path>
                <rect id="Rectangle" fill="#ECEFF7" x="0" y="0" width="18" height="19" rx="9"></rect>
                <rect id="Rectangle" fill="#ECEFF7" x="192" y="26" width="18" height="19" rx="9"></rect>
                <rect id="Rectangle" fill="#FFFFFF" x="45" y="15" width="88" height="4" rx="2"></rect>
                <rect id="Rectangle" fill="#FFFFFF" x="46" y="31" width="47" height="4" rx="2"></rect>
                <g id="Rectangle">
                    <use fill="black" fill-opacity="1" filter="url(#filter-2)" xlink:href="#path-1"></use>
                    <use fill="#FFFFFF" fill-rule="evenodd" xlink:href="#path-1"></use>
                </g>
                <rect id="Rectangle" fill="#ECEFF7" x="79" y="42" width="89" height="4" rx="2"></rect>
                <rect id="Rectangle" fill="#ECEFF7" x="79" y="58" width="47" height="4" rx="2"></rect>
            </g>
        </g>
    </g>
</svg>